# xmcd
#
# Track frame offsets: 
#        150
#        1209
#        63929
#        97991
#        128533
#        161225
#
# Disc length: 2459 seconds
#
# Revision: 0
# Processed by: cddbd v1.5.2PL0 Copyright (c) Steve Scherf et al.
# Submitted via: ExactAudioCopy v0.99pb4
#
DISCID=3e099906
DTITLE=Anatoly Vapirov - To Miama and Back
DYEAR=1996
DGENRE=Instrumental
TTITLE0=Intro
TTITLE1=Morning Over Key West
TTITLE2=With Sandals On Along Miami Beach
TTITLE3=Romancero
TTITLE4=Balkan-I-Ada \\In Balkan Way\\
TTITLE5=Liturgy Of the Doomed
EXTD=
EXTT0=
EXTT1=
EXTT2=
EXTT3=
EXTT4=
EXTT5=
PLAYORDER=
